<mxfile host="app.diagrams.net" modified="2024-07-01T01:45:55.427Z" agent="Mozilla/5.0 (Macintosh; Intel Mac OS X 10_15_7) AppleWebKit/537.36 (KHTML, like Gecko) Chrome/126.0.0.0 Safari/537.36" etag="G-zqiBqOW93Rx6823vYv" version="24.6.4" type="device" pages="5">
  <diagram name="Vista de escenario" id="o63hXrY2IEFDQTfMKW6G">
    <mxGraphModel dx="1306" dy="826" grid="1" gridSize="10" guides="1" tooltips="1" connect="1" arrows="1" fold="1" page="1" pageScale="1" pageWidth="827" pageHeight="1169" math="0" shadow="0">
      <root>
        <mxCell id="0" />
        <mxCell id="1" parent="0" />
        <mxCell id="KmbG5L55gvS5QnjoXS9Y-1" value="Actor" style="shape=umlActor;verticalLabelPosition=bottom;verticalAlign=top;html=1;outlineConnect=0;" vertex="1" parent="1">
          <mxGeometry x="170" y="280" width="30" height="60" as="geometry" />
        </mxCell>
        <mxCell id="KmbG5L55gvS5QnjoXS9Y-2" value="Consultar disponibilidad box" style="ellipse;whiteSpace=wrap;html=1;" vertex="1" parent="1">
          <mxGeometry x="332.5" y="160" width="140" height="70" as="geometry" />
        </mxCell>
        <mxCell id="KmbG5L55gvS5QnjoXS9Y-3" style="edgeStyle=orthogonalEdgeStyle;rounded=0;orthogonalLoop=1;jettySize=auto;html=1;entryX=1;entryY=0.3333333333333333;entryDx=0;entryDy=0;entryPerimeter=0;" edge="1" parent="1" source="KmbG5L55gvS5QnjoXS9Y-4" target="KmbG5L55gvS5QnjoXS9Y-1">
          <mxGeometry relative="1" as="geometry">
            <mxPoint x="210" y="300" as="targetPoint" />
          </mxGeometry>
        </mxCell>
        <mxCell id="KmbG5L55gvS5QnjoXS9Y-4" value="Asignar box" style="ellipse;whiteSpace=wrap;html=1;" vertex="1" parent="1">
          <mxGeometry x="347.5" y="240" width="110" height="70" as="geometry" />
        </mxCell>
        <mxCell id="KmbG5L55gvS5QnjoXS9Y-5" style="edgeStyle=orthogonalEdgeStyle;rounded=0;orthogonalLoop=1;jettySize=auto;html=1;" edge="1" parent="1" source="KmbG5L55gvS5QnjoXS9Y-6" target="KmbG5L55gvS5QnjoXS9Y-1">
          <mxGeometry relative="1" as="geometry" />
        </mxCell>
        <mxCell id="KmbG5L55gvS5QnjoXS9Y-6" value="Asignar horas" style="ellipse;whiteSpace=wrap;html=1;" vertex="1" parent="1">
          <mxGeometry x="340" y="330" width="120" height="60" as="geometry" />
        </mxCell>
        <mxCell id="KmbG5L55gvS5QnjoXS9Y-7" value="Casos de Uso" style="shape=umlFrame;whiteSpace=wrap;html=1;pointerEvents=0;" vertex="1" parent="1">
          <mxGeometry x="280" y="130" width="240" height="430" as="geometry" />
        </mxCell>
        <mxCell id="KmbG5L55gvS5QnjoXS9Y-8" style="edgeStyle=orthogonalEdgeStyle;rounded=0;orthogonalLoop=1;jettySize=auto;html=1;" edge="1" parent="1" source="KmbG5L55gvS5QnjoXS9Y-9">
          <mxGeometry relative="1" as="geometry">
            <mxPoint x="190" y="360" as="targetPoint" />
          </mxGeometry>
        </mxCell>
        <mxCell id="KmbG5L55gvS5QnjoXS9Y-9" value="Registrar hora" style="ellipse;whiteSpace=wrap;html=1;" vertex="1" parent="1">
          <mxGeometry x="345" y="400" width="115" height="60" as="geometry" />
        </mxCell>
        <mxCell id="KmbG5L55gvS5QnjoXS9Y-10" style="edgeStyle=orthogonalEdgeStyle;rounded=0;orthogonalLoop=1;jettySize=auto;html=1;" edge="1" parent="1" source="KmbG5L55gvS5QnjoXS9Y-11">
          <mxGeometry relative="1" as="geometry">
            <mxPoint x="180" y="360" as="targetPoint" />
          </mxGeometry>
        </mxCell>
        <mxCell id="KmbG5L55gvS5QnjoXS9Y-11" value="Consultar disponibilidad especialista" style="ellipse;whiteSpace=wrap;html=1;" vertex="1" parent="1">
          <mxGeometry x="330" y="470" width="140" height="70" as="geometry" />
        </mxCell>
        <mxCell id="KmbG5L55gvS5QnjoXS9Y-12" style="edgeStyle=orthogonalEdgeStyle;rounded=0;orthogonalLoop=1;jettySize=auto;html=1;entryX=0.5;entryY=0;entryDx=0;entryDy=0;entryPerimeter=0;" edge="1" parent="1" source="KmbG5L55gvS5QnjoXS9Y-2" target="KmbG5L55gvS5QnjoXS9Y-1">
          <mxGeometry relative="1" as="geometry" />
        </mxCell>
        <mxCell id="KmbG5L55gvS5QnjoXS9Y-13" value="&lt;h1 style=&quot;margin-top: 0px;&quot;&gt;Vista de escenario&lt;/h1&gt;&lt;p&gt;Representamos la vista de escenario mediante un diagrama UML de Casos de Uso. Esta vista permite identificar las funciones que ofrece el sistema y como los usuarios interactúan con el.&lt;/p&gt;" style="text;html=1;whiteSpace=wrap;overflow=hidden;rounded=0;" vertex="1" parent="1">
          <mxGeometry x="19" y="30" width="220" height="120" as="geometry" />
        </mxCell>
      </root>
    </mxGraphModel>
  </diagram>
  <diagram name="Vista logica" id="3GgIPD6sdZ6h1W5dXfl3">
    <mxGraphModel dx="1434" dy="-423" grid="1" gridSize="10" guides="1" tooltips="1" connect="1" arrows="1" fold="1" page="1" pageScale="1" pageWidth="827" pageHeight="1169" math="0" shadow="0">
      <root>
        <mxCell id="0" />
        <mxCell id="1" parent="0" />
        <mxCell id="NdadWqpD9JSSpwL6CNBm-1" value="&lt;h1 style=&quot;margin-top: 0px;&quot;&gt;Vista lógica&lt;/h1&gt;&lt;p&gt;Representamos la vista lógica mediante un diagrama UML de clases. Esta vista permite identificar la estructura del sistema y su operación, lo que es de utilidad para el usuario final.&lt;/p&gt;" style="text;html=1;whiteSpace=wrap;overflow=hidden;rounded=0;" vertex="1" parent="1">
          <mxGeometry x="30" y="1200" width="220" height="120" as="geometry" />
        </mxCell>
        <mxCell id="TafYUoUx0hibfP_FrU5n-1" value="&lt;p style=&quot;margin:0px;margin-top:4px;text-align:center;&quot;&gt;&lt;b&gt;Especialista&lt;/b&gt;&lt;/p&gt;&lt;hr size=&quot;1&quot; style=&quot;border-style:solid;&quot;&gt;&lt;p style=&quot;margin:0px;margin-left:4px;&quot;&gt;+ id_especialista&lt;/p&gt;&lt;p style=&quot;margin:0px;margin-left:4px;&quot;&gt;+ nombre_especialista&lt;br&gt;&lt;/p&gt;&lt;p style=&quot;margin:0px;margin-left:4px;&quot;&gt;+ teléfono&lt;br&gt;&lt;/p&gt;&lt;p style=&quot;margin:0px;margin-left:4px;&quot;&gt;+ dirección&lt;/p&gt;&lt;hr size=&quot;1&quot; style=&quot;border-style:solid;&quot;&gt;&lt;p style=&quot;margin:0px;margin-left:4px;&quot;&gt;+ asignar_especialista&lt;/p&gt;" style="verticalAlign=top;align=left;overflow=fill;html=1;whiteSpace=wrap;" vertex="1" parent="1">
          <mxGeometry x="70" y="1515" width="160" height="130" as="geometry" />
        </mxCell>
        <mxCell id="TafYUoUx0hibfP_FrU5n-2" value="&lt;p style=&quot;margin:0px;margin-top:4px;text-align:center;&quot;&gt;&lt;b&gt;Box&lt;/b&gt;&lt;/p&gt;&lt;hr size=&quot;1&quot; style=&quot;border-style:solid;&quot;&gt;&lt;p style=&quot;margin:0px;margin-left:4px;&quot;&gt;+ cod_box&lt;/p&gt;&lt;p style=&quot;margin:0px;margin-left:4px;&quot;&gt;+ descripción&lt;/p&gt;&lt;p style=&quot;margin:0px;margin-left:4px;&quot;&gt;+ stock&lt;/p&gt;&lt;hr size=&quot;1&quot; style=&quot;border-style:solid;&quot;&gt;&lt;p style=&quot;margin:0px;margin-left:4px;&quot;&gt;+ consultar_box&lt;/p&gt;&lt;p style=&quot;margin:0px;margin-left:4px;&quot;&gt;+ confirmar_box&lt;/p&gt;&lt;p style=&quot;margin:0px;margin-left:4px;&quot;&gt;&lt;br&gt;&lt;/p&gt;" style="verticalAlign=top;align=left;overflow=fill;html=1;whiteSpace=wrap;rotation=0;" vertex="1" parent="1">
          <mxGeometry x="290" y="1520" width="160" height="130" as="geometry" />
        </mxCell>
        <mxCell id="TafYUoUx0hibfP_FrU5n-3" value="&lt;p style=&quot;margin:0px;margin-top:4px;text-align:center;&quot;&gt;&lt;b&gt;Especialidades&lt;/b&gt;&lt;/p&gt;&lt;hr size=&quot;1&quot; style=&quot;border-style:solid;&quot;&gt;&lt;p style=&quot;margin:0px;margin-left:4px;&quot;&gt;+ cod_especialidad&lt;/p&gt;&lt;p style=&quot;margin:0px;margin-left:4px;&quot;&gt;+ coordinador_equipo&lt;/p&gt;&lt;p style=&quot;margin:0px;margin-left:4px;&quot;&gt;+ subespecialidad&lt;/p&gt;&lt;p style=&quot;margin:0px;margin-left:4px;&quot;&gt;+ jefe_equipo&lt;/p&gt;&lt;p style=&quot;margin:0px;margin-left:4px;&quot;&gt;+ teléfono&lt;/p&gt;&lt;p style=&quot;margin:0px;margin-left:4px;&quot;&gt;+ email&lt;/p&gt;&lt;hr size=&quot;1&quot; style=&quot;border-style:solid;&quot;&gt;&lt;p style=&quot;margin:0px;margin-left:4px;&quot;&gt;&lt;br&gt;&lt;/p&gt;&lt;p style=&quot;margin:0px;margin-left:4px;&quot;&gt;&lt;br&gt;&lt;/p&gt;" style="verticalAlign=top;align=left;overflow=fill;html=1;whiteSpace=wrap;rotation=0;" vertex="1" parent="1">
          <mxGeometry x="500" y="1520" width="160" height="140" as="geometry" />
        </mxCell>
        <mxCell id="jt9bM7gSY0gXRp1uxEKW-1" value="&lt;p style=&quot;margin:0px;margin-top:4px;text-align:center;&quot;&gt;&lt;b&gt;Ofertas&lt;/b&gt;&lt;/p&gt;&lt;hr size=&quot;1&quot; style=&quot;border-style:solid;&quot;&gt;&lt;p style=&quot;margin:0px;margin-left:4px;&quot;&gt;+ rut&lt;/p&gt;&lt;p style=&quot;margin:0px;margin-left:4px;&quot;&gt;+ nombre&lt;/p&gt;&lt;p style=&quot;margin:0px;margin-left:4px;&quot;&gt;+ especialidad&lt;/p&gt;&lt;p style=&quot;margin:0px;margin-left:4px;&quot;&gt;+&lt;/p&gt;&lt;hr size=&quot;1&quot; style=&quot;border-style:solid;&quot;&gt;&lt;p style=&quot;margin:0px;margin-left:4px;&quot;&gt;&lt;br&gt;&lt;/p&gt;&lt;p style=&quot;margin:0px;margin-left:4px;&quot;&gt;&lt;br&gt;&lt;/p&gt;" style="verticalAlign=top;align=left;overflow=fill;html=1;whiteSpace=wrap;rotation=0;" vertex="1" parent="1">
          <mxGeometry x="70" y="1670" width="160" height="200" as="geometry" />
        </mxCell>
      </root>
    </mxGraphModel>
  </diagram>
  <diagram name="Vista de despliegue" id="l-zacW5YqrsH-CsPSk9Y">
    <mxGraphModel dx="1434" dy="-423" grid="1" gridSize="10" guides="1" tooltips="1" connect="1" arrows="1" fold="1" page="1" pageScale="1" pageWidth="827" pageHeight="1169" math="0" shadow="0">
      <root>
        <mxCell id="0" />
        <mxCell id="1" parent="0" />
        <mxCell id="50mwOAg9GN1sT4oo5lEn-1" value="&lt;h1 style=&quot;margin-top: 0px;&quot;&gt;Vista de despliegue&lt;/h1&gt;&lt;p&gt;Representamos la vista de despliegue mediante un diagrama UML de componentes. Esta vista permite identificar los componentes principales del sistema y cómo se relacionan entre sí.&lt;br&gt;&lt;/p&gt;" style="text;html=1;whiteSpace=wrap;overflow=hidden;rounded=0;" vertex="1" parent="1">
          <mxGeometry x="490" y="1190" width="230" height="130" as="geometry" />
        </mxCell>
      </root>
    </mxGraphModel>
  </diagram>
  <diagram name="Vista física" id="LnvHblHCX5Na2F-tA-Up">
    <mxGraphModel dx="1306" dy="826" grid="1" gridSize="10" guides="1" tooltips="1" connect="1" arrows="1" fold="1" page="1" pageScale="1" pageWidth="827" pageHeight="1169" math="0" shadow="0">
      <root>
        <mxCell id="0" />
        <mxCell id="1" parent="0" />
        <mxCell id="1oQC61xuntgLoXNBbXqD-1" value="&lt;h1 style=&quot;margin-top: 0px;&quot;&gt;Vista Física&lt;/h1&gt;&lt;p&gt;Representamos a vista física mediante un Diagrama de despliegue. Esta vista permite identificar&amp;nbsp;&lt;span style=&quot;background-color: initial;&quot;&gt;donde sera&lt;/span&gt;&lt;span style=&quot;background-color: initial;&quot;&gt;&amp;nbsp;toda la infraestructura física.&amp;nbsp;&lt;/span&gt;&lt;/p&gt;" style="text;html=1;whiteSpace=wrap;overflow=hidden;rounded=0;" parent="1" vertex="1">
          <mxGeometry x="29" y="40" width="220" height="120" as="geometry" />
        </mxCell>
        <mxCell id="zvTXo1lupwwpCnJlEoSu-1" style="edgeStyle=orthogonalEdgeStyle;rounded=0;orthogonalLoop=1;jettySize=auto;html=1;exitX=0;exitY=0;exitDx=55;exitDy=0;exitPerimeter=0;" parent="1" source="zvTXo1lupwwpCnJlEoSu-3" edge="1">
          <mxGeometry relative="1" as="geometry">
            <mxPoint x="509" y="325" as="targetPoint" />
            <Array as="points">
              <mxPoint x="360" y="315" />
              <mxPoint x="360" y="326" />
            </Array>
          </mxGeometry>
        </mxCell>
        <mxCell id="zvTXo1lupwwpCnJlEoSu-2" value="&lt;font style=&quot;font-size: 13px;&quot;&gt;INTERNET&lt;/font&gt;" style="edgeLabel;html=1;align=center;verticalAlign=middle;resizable=0;points=[];" parent="zvTXo1lupwwpCnJlEoSu-1" vertex="1" connectable="0">
          <mxGeometry x="0.2906" y="-3" relative="1" as="geometry">
            <mxPoint x="-21" y="-19" as="offset" />
          </mxGeometry>
        </mxCell>
        <mxCell id="zvTXo1lupwwpCnJlEoSu-3" value="Usuario&lt;span style=&quot;white-space: pre;&quot;&gt;&#x9;&lt;/span&gt;&lt;span style=&quot;white-space: pre;&quot;&gt;&#x9;&lt;/span&gt;&lt;div&gt;&lt;br&gt;&lt;/div&gt;&lt;div&gt;&lt;br&gt;&lt;/div&gt;" style="verticalAlign=top;align=left;spacingTop=8;spacingLeft=2;spacingRight=12;shape=cube;size=10;direction=south;fontStyle=4;html=1;whiteSpace=wrap;" parent="1" vertex="1">
          <mxGeometry x="119" y="260" width="180" height="160" as="geometry" />
        </mxCell>
        <mxCell id="zvTXo1lupwwpCnJlEoSu-4" value="Servidor DB&amp;nbsp;" style="verticalAlign=top;align=left;spacingTop=8;spacingLeft=2;spacingRight=12;shape=cube;size=10;direction=south;fontStyle=4;html=1;whiteSpace=wrap;" parent="1" vertex="1">
          <mxGeometry x="513" y="170" width="187" height="370" as="geometry" />
        </mxCell>
        <mxCell id="zvTXo1lupwwpCnJlEoSu-5" value="navegador internet" style="shape=module;align=left;spacingLeft=20;align=center;verticalAlign=top;whiteSpace=wrap;html=1;" parent="1" vertex="1">
          <mxGeometry x="149" y="315" width="100" height="50" as="geometry" />
        </mxCell>
        <mxCell id="zvTXo1lupwwpCnJlEoSu-8" value="&lt;div&gt;&lt;span style=&quot;background-color: initial;&quot;&gt;Microsoft&lt;/span&gt;&lt;br&gt;&lt;/div&gt;" style="shape=module;align=left;spacingLeft=20;align=center;verticalAlign=top;whiteSpace=wrap;html=1;" parent="1" vertex="1">
          <mxGeometry x="539" y="230" width="100" height="50" as="geometry" />
        </mxCell>
        <mxCell id="zvTXo1lupwwpCnJlEoSu-9" value="&lt;div&gt;&lt;span style=&quot;background-color: initial;&quot;&gt;Apache&lt;/span&gt;&lt;br&gt;&lt;/div&gt;" style="shape=module;align=left;spacingLeft=20;align=center;verticalAlign=top;whiteSpace=wrap;html=1;" parent="1" vertex="1">
          <mxGeometry x="539" y="290" width="100" height="50" as="geometry" />
        </mxCell>
        <mxCell id="zvTXo1lupwwpCnJlEoSu-10" value="&lt;div&gt;&lt;span style=&quot;background-color: initial;&quot;&gt;MySQL&lt;/span&gt;&lt;br&gt;&lt;/div&gt;" style="shape=module;align=left;spacingLeft=20;align=center;verticalAlign=top;whiteSpace=wrap;html=1;" parent="1" vertex="1">
          <mxGeometry x="539" y="350" width="100" height="50" as="geometry" />
        </mxCell>
        <mxCell id="zvTXo1lupwwpCnJlEoSu-11" value="&lt;div&gt;&lt;span style=&quot;background-color: initial;&quot;&gt;Php&lt;/span&gt;&lt;br&gt;&lt;/div&gt;" style="shape=module;align=left;spacingLeft=20;align=center;verticalAlign=top;whiteSpace=wrap;html=1;" parent="1" vertex="1">
          <mxGeometry x="539" y="410" width="100" height="50" as="geometry" />
        </mxCell>
        <mxCell id="zvTXo1lupwwpCnJlEoSu-12" value="&lt;div&gt;&lt;span style=&quot;background-color: initial;&quot;&gt;https&lt;/span&gt;&lt;br&gt;&lt;/div&gt;" style="shape=module;align=left;spacingLeft=20;align=center;verticalAlign=top;whiteSpace=wrap;html=1;" parent="1" vertex="1">
          <mxGeometry x="539" y="470" width="100" height="50" as="geometry" />
        </mxCell>
      </root>
    </mxGraphModel>
  </diagram>
  <diagram name="Vista de procesos" id="3c4GlxcsbG9C5puknKZa">
    <mxGraphModel dx="624" dy="729" grid="1" gridSize="10" guides="1" tooltips="1" connect="1" arrows="1" fold="1" page="1" pageScale="1" pageWidth="827" pageHeight="1169" math="0" shadow="0">
      <root>
        <mxCell id="0" />
        <mxCell id="1" parent="0" />
        <mxCell id="HJrvIiCZRH7YxBNrtyu0-1" value="Usuario&lt;div&gt;&lt;br&gt;&lt;/div&gt;" style="shape=umlActor;verticalLabelPosition=bottom;verticalAlign=top;html=1;" parent="1" vertex="1">
          <mxGeometry x="70" y="210" width="30" height="60" as="geometry" />
        </mxCell>
        <mxCell id="HJrvIiCZRH7YxBNrtyu0-2" value="" style="html=1;points=[[0,0,0,0,5],[0,1,0,0,-5],[1,0,0,0,5],[1,1,0,0,-5]];perimeter=orthogonalPerimeter;outlineConnect=0;targetShapes=umlLifeline;portConstraint=eastwest;newEdgeStyle={&quot;curved&quot;:0,&quot;rounded&quot;:0};" parent="1" vertex="1">
          <mxGeometry x="190" y="310" width="10" height="90" as="geometry" />
        </mxCell>
        <mxCell id="HJrvIiCZRH7YxBNrtyu0-3" value="" style="html=1;points=[[0,0,0,0,5],[0,1,0,0,-5],[1,0,0,0,5],[1,1,0,0,-5]];perimeter=orthogonalPerimeter;outlineConnect=0;targetShapes=umlLifeline;portConstraint=eastwest;newEdgeStyle={&quot;curved&quot;:0,&quot;rounded&quot;:0};" parent="1" vertex="1">
          <mxGeometry x="80" y="310" width="10" height="90" as="geometry" />
        </mxCell>
        <mxCell id="HJrvIiCZRH7YxBNrtyu0-4" value="" style="html=1;points=[[0,0,0,0,5],[0,1,0,0,-5],[1,0,0,0,5],[1,1,0,0,-5]];perimeter=orthogonalPerimeter;outlineConnect=0;targetShapes=umlLifeline;portConstraint=eastwest;newEdgeStyle={&quot;curved&quot;:0,&quot;rounded&quot;:0};" parent="1" vertex="1">
          <mxGeometry x="330" y="320" width="10" height="80" as="geometry" />
        </mxCell>
        <mxCell id="HJrvIiCZRH7YxBNrtyu0-6" value="consultar_box" style="html=1;verticalAlign=bottom;endArrow=block;curved=0;rounded=0;entryX=0;entryY=0;entryDx=0;entryDy=5;entryPerimeter=0;" parent="1" source="HJrvIiCZRH7YxBNrtyu0-3" target="HJrvIiCZRH7YxBNrtyu0-2" edge="1">
          <mxGeometry width="80" relative="1" as="geometry">
            <mxPoint x="110" y="290" as="sourcePoint" />
            <mxPoint x="190" y="290" as="targetPoint" />
          </mxGeometry>
        </mxCell>
        <mxCell id="HJrvIiCZRH7YxBNrtyu0-7" value="asignar_especialista" style="html=1;verticalAlign=bottom;endArrow=block;curved=0;rounded=0;" parent="1" target="HJrvIiCZRH7YxBNrtyu0-4" edge="1">
          <mxGeometry width="80" relative="1" as="geometry">
            <mxPoint x="200" y="320" as="sourcePoint" />
            <mxPoint x="310" y="320" as="targetPoint" />
            <mxPoint as="offset" />
          </mxGeometry>
        </mxCell>
        <mxCell id="HJrvIiCZRH7YxBNrtyu0-9" value="&lt;h1 style=&quot;margin-top: 0px;&quot;&gt;Vista de procesos&lt;/h1&gt;&lt;p&gt;Representamos la vista de procesos mediante un diagrama UML de secuencia. Esta vista permite identificar como se llevan a cabos las tareas y como fluye la información entre ellas&lt;/p&gt;" style="text;html=1;whiteSpace=wrap;overflow=hidden;rounded=0;" parent="1" vertex="1">
          <mxGeometry x="30" y="20" width="220" height="120" as="geometry" />
        </mxCell>
        <mxCell id="87T_6Iy5gAR6g1AFsu1Z-2" value="" style="endArrow=none;dashed=1;html=1;rounded=0;" parent="1" edge="1">
          <mxGeometry width="50" height="50" relative="1" as="geometry">
            <mxPoint x="85.24" y="310" as="sourcePoint" />
            <mxPoint x="84.75999999999998" y="290" as="targetPoint" />
          </mxGeometry>
        </mxCell>
        <mxCell id="87T_6Iy5gAR6g1AFsu1Z-3" value="" style="endArrow=none;dashed=1;html=1;rounded=0;entryX=0.5;entryY=1;entryDx=0;entryDy=0;" parent="1" target="87T_6Iy5gAR6g1AFsu1Z-5" edge="1">
          <mxGeometry width="50" height="50" relative="1" as="geometry">
            <mxPoint x="195.25" y="310" as="sourcePoint" />
            <mxPoint x="194.75" y="270" as="targetPoint" />
          </mxGeometry>
        </mxCell>
        <mxCell id="87T_6Iy5gAR6g1AFsu1Z-4" value="" style="endArrow=none;dashed=1;html=1;rounded=0;entryX=0.5;entryY=1;entryDx=0;entryDy=0;" parent="1" edge="1">
          <mxGeometry width="50" height="50" relative="1" as="geometry">
            <mxPoint x="334.83" y="320" as="sourcePoint" />
            <mxPoint x="334.58" y="260" as="targetPoint" />
          </mxGeometry>
        </mxCell>
        <mxCell id="87T_6Iy5gAR6g1AFsu1Z-5" value="Objeto del dominio: Box" style="html=1;align=center;verticalAlign=middle;dashed=0;whiteSpace=wrap;" parent="1" vertex="1">
          <mxGeometry x="140" y="225" width="110" height="40" as="geometry" />
        </mxCell>
        <mxCell id="87T_6Iy5gAR6g1AFsu1Z-6" value="Objeto del dominio: Especialista" style="html=1;align=center;verticalAlign=middle;dashed=0;whiteSpace=wrap;" parent="1" vertex="1">
          <mxGeometry x="280" y="225" width="110" height="40" as="geometry" />
        </mxCell>
        <mxCell id="87T_6Iy5gAR6g1AFsu1Z-7" value="------" style="html=1;verticalAlign=bottom;endArrow=block;curved=0;rounded=0;" parent="1" edge="1">
          <mxGeometry x="-0.0026" width="80" relative="1" as="geometry">
            <mxPoint x="340" y="330" as="sourcePoint" />
            <mxPoint x="450" y="330" as="targetPoint" />
            <mxPoint as="offset" />
          </mxGeometry>
        </mxCell>
        <mxCell id="87T_6Iy5gAR6g1AFsu1Z-8" value="confirmar_box" style="html=1;verticalAlign=bottom;endArrow=open;dashed=1;endSize=8;edgeStyle=elbowEdgeStyle;elbow=vertical;curved=0;rounded=0;" parent="1" edge="1">
          <mxGeometry relative="1" as="geometry">
            <mxPoint x="90" y="399.17" as="targetPoint" />
            <Array as="points">
              <mxPoint x="145" y="399.17" />
            </Array>
            <mxPoint x="190" y="400" as="sourcePoint" />
          </mxGeometry>
        </mxCell>
        <mxCell id="87T_6Iy5gAR6g1AFsu1Z-9" value="seleccionar_especialista" style="html=1;verticalAlign=bottom;endArrow=open;dashed=1;endSize=8;edgeStyle=elbowEdgeStyle;elbow=vertical;curved=0;rounded=0;" parent="1" source="HJrvIiCZRH7YxBNrtyu0-4" edge="1">
          <mxGeometry relative="1" as="geometry">
            <mxPoint x="200" y="399.17" as="targetPoint" />
            <Array as="points">
              <mxPoint x="245" y="399.17" />
            </Array>
            <mxPoint x="315" y="399.17" as="sourcePoint" />
            <mxPoint as="offset" />
          </mxGeometry>
        </mxCell>
        <mxCell id="87T_6Iy5gAR6g1AFsu1Z-10" value="" style="rounded=0;whiteSpace=wrap;html=1;" parent="1" vertex="1">
          <mxGeometry x="450" y="320" width="20.5" height="20" as="geometry" />
        </mxCell>
        <mxCell id="87T_6Iy5gAR6g1AFsu1Z-11" value="" style="endArrow=none;dashed=1;html=1;rounded=0;" parent="1" edge="1">
          <mxGeometry width="50" height="50" relative="1" as="geometry">
            <mxPoint x="460.08" y="320" as="sourcePoint" />
            <mxPoint x="460" y="270" as="targetPoint" />
          </mxGeometry>
        </mxCell>
        <mxCell id="87T_6Iy5gAR6g1AFsu1Z-12" value="Objeto del dominio:&amp;nbsp;" style="html=1;align=center;verticalAlign=middle;dashed=0;whiteSpace=wrap;" parent="1" vertex="1">
          <mxGeometry x="405.25" y="230" width="110" height="40" as="geometry" />
        </mxCell>
        <mxCell id="MCzsekqoAq80y8tPlUfl-1" value="Usuario&lt;div&gt;&lt;br&gt;&lt;/div&gt;" style="shape=umlActor;verticalLabelPosition=bottom;verticalAlign=top;html=1;" parent="1" vertex="1">
          <mxGeometry x="80" y="510" width="30" height="60" as="geometry" />
        </mxCell>
        <mxCell id="MCzsekqoAq80y8tPlUfl-2" value="" style="html=1;points=[[0,0,0,0,5],[0,1,0,0,-5],[1,0,0,0,5],[1,1,0,0,-5]];perimeter=orthogonalPerimeter;outlineConnect=0;targetShapes=umlLifeline;portConstraint=eastwest;newEdgeStyle={&quot;curved&quot;:0,&quot;rounded&quot;:0};" parent="1" vertex="1">
          <mxGeometry x="220" y="610" width="10" height="90" as="geometry" />
        </mxCell>
        <mxCell id="MCzsekqoAq80y8tPlUfl-3" value="" style="html=1;points=[[0,0,0,0,5],[0,1,0,0,-5],[1,0,0,0,5],[1,1,0,0,-5]];perimeter=orthogonalPerimeter;outlineConnect=0;targetShapes=umlLifeline;portConstraint=eastwest;newEdgeStyle={&quot;curved&quot;:0,&quot;rounded&quot;:0};" parent="1" vertex="1">
          <mxGeometry x="90" y="610" width="10" height="90" as="geometry" />
        </mxCell>
        <mxCell id="MCzsekqoAq80y8tPlUfl-4" value="" style="html=1;points=[[0,0,0,0,5],[0,1,0,0,-5],[1,0,0,0,5],[1,1,0,0,-5]];perimeter=orthogonalPerimeter;outlineConnect=0;targetShapes=umlLifeline;portConstraint=eastwest;newEdgeStyle={&quot;curved&quot;:0,&quot;rounded&quot;:0};" parent="1" vertex="1">
          <mxGeometry x="370" y="620" width="10" height="80" as="geometry" />
        </mxCell>
        <mxCell id="MCzsekqoAq80y8tPlUfl-5" value="consultar_especialista" style="html=1;verticalAlign=bottom;endArrow=block;curved=0;rounded=0;entryX=0;entryY=0;entryDx=0;entryDy=5;entryPerimeter=0;" parent="1" source="MCzsekqoAq80y8tPlUfl-3" target="MCzsekqoAq80y8tPlUfl-2" edge="1">
          <mxGeometry width="80" relative="1" as="geometry">
            <mxPoint x="120" y="590" as="sourcePoint" />
            <mxPoint x="200" y="590" as="targetPoint" />
            <mxPoint as="offset" />
          </mxGeometry>
        </mxCell>
        <mxCell id="MCzsekqoAq80y8tPlUfl-6" value="consultar_box" style="html=1;verticalAlign=bottom;endArrow=block;curved=0;rounded=0;" parent="1" target="MCzsekqoAq80y8tPlUfl-4" edge="1">
          <mxGeometry width="80" relative="1" as="geometry">
            <mxPoint x="230" y="620" as="sourcePoint" />
            <mxPoint x="320" y="620" as="targetPoint" />
            <mxPoint as="offset" />
          </mxGeometry>
        </mxCell>
        <mxCell id="MCzsekqoAq80y8tPlUfl-7" value="" style="endArrow=none;dashed=1;html=1;rounded=0;" parent="1" edge="1">
          <mxGeometry width="50" height="50" relative="1" as="geometry">
            <mxPoint x="95.24" y="610" as="sourcePoint" />
            <mxPoint x="94.75999999999998" y="590" as="targetPoint" />
          </mxGeometry>
        </mxCell>
        <mxCell id="MCzsekqoAq80y8tPlUfl-8" value="" style="endArrow=none;dashed=1;html=1;rounded=0;entryX=0.5;entryY=1;entryDx=0;entryDy=0;" parent="1" edge="1">
          <mxGeometry width="50" height="50" relative="1" as="geometry">
            <mxPoint x="224.96" y="610" as="sourcePoint" />
            <mxPoint x="224.71" y="565" as="targetPoint" />
          </mxGeometry>
        </mxCell>
        <mxCell id="MCzsekqoAq80y8tPlUfl-9" value="" style="endArrow=none;dashed=1;html=1;rounded=0;entryX=0.5;entryY=1;entryDx=0;entryDy=0;" parent="1" edge="1">
          <mxGeometry width="50" height="50" relative="1" as="geometry">
            <mxPoint x="374.96" y="620" as="sourcePoint" />
            <mxPoint x="374.71" y="560" as="targetPoint" />
          </mxGeometry>
        </mxCell>
        <mxCell id="MCzsekqoAq80y8tPlUfl-10" value="Objeto del dominio: Especialista" style="html=1;align=center;verticalAlign=middle;dashed=0;whiteSpace=wrap;" parent="1" vertex="1">
          <mxGeometry x="170" y="525" width="110" height="40" as="geometry" />
        </mxCell>
        <mxCell id="MCzsekqoAq80y8tPlUfl-11" value="Objeto del dominio: Box" style="html=1;align=center;verticalAlign=middle;dashed=0;whiteSpace=wrap;" parent="1" vertex="1">
          <mxGeometry x="320" y="525" width="110" height="40" as="geometry" />
        </mxCell>
        <mxCell id="MCzsekqoAq80y8tPlUfl-12" value="asignar_box" style="html=1;verticalAlign=bottom;endArrow=block;curved=0;rounded=0;" parent="1" edge="1">
          <mxGeometry width="80" relative="1" as="geometry">
            <mxPoint x="380" y="630" as="sourcePoint" />
            <mxPoint x="504.75" y="629.8" as="targetPoint" />
            <mxPoint as="offset" />
          </mxGeometry>
        </mxCell>
        <mxCell id="MCzsekqoAq80y8tPlUfl-13" value="confirmar_especialista" style="html=1;verticalAlign=bottom;endArrow=open;dashed=1;endSize=8;edgeStyle=elbowEdgeStyle;elbow=vertical;curved=0;rounded=0;" parent="1" source="MCzsekqoAq80y8tPlUfl-2" edge="1">
          <mxGeometry relative="1" as="geometry">
            <mxPoint x="100" y="699.1700000000001" as="targetPoint" />
            <Array as="points">
              <mxPoint x="155" y="699.1700000000001" />
            </Array>
            <mxPoint x="200" y="700" as="sourcePoint" />
          </mxGeometry>
        </mxCell>
        <mxCell id="MCzsekqoAq80y8tPlUfl-14" value="confirmar_box" style="html=1;verticalAlign=bottom;endArrow=open;dashed=1;endSize=8;edgeStyle=elbowEdgeStyle;elbow=vertical;curved=0;rounded=0;" parent="1" source="MCzsekqoAq80y8tPlUfl-4" edge="1">
          <mxGeometry relative="1" as="geometry">
            <mxPoint x="230" y="700" as="targetPoint" />
            <Array as="points">
              <mxPoint x="255" y="699.1700000000001" />
            </Array>
            <mxPoint x="325" y="699.1700000000001" as="sourcePoint" />
            <mxPoint as="offset" />
          </mxGeometry>
        </mxCell>
        <mxCell id="MCzsekqoAq80y8tPlUfl-15" value="" style="rounded=0;whiteSpace=wrap;html=1;" parent="1" vertex="1">
          <mxGeometry x="504.75" y="620" width="20.5" height="20" as="geometry" />
        </mxCell>
        <mxCell id="MCzsekqoAq80y8tPlUfl-16" value="" style="endArrow=none;dashed=1;html=1;rounded=0;" parent="1" edge="1">
          <mxGeometry width="50" height="50" relative="1" as="geometry">
            <mxPoint x="514.5" y="620" as="sourcePoint" />
            <mxPoint x="514.42" y="570" as="targetPoint" />
          </mxGeometry>
        </mxCell>
        <mxCell id="MCzsekqoAq80y8tPlUfl-17" value="Objeto del dominio:&amp;nbsp;&lt;div&gt;Box&lt;/div&gt;" style="html=1;align=center;verticalAlign=middle;dashed=0;whiteSpace=wrap;" parent="1" vertex="1">
          <mxGeometry x="460" y="530" width="110" height="40" as="geometry" />
        </mxCell>
        <mxCell id="sYBTqALXC2QQ1GLhCgIk-1" value="Usuario&lt;div&gt;&lt;br&gt;&lt;/div&gt;" style="shape=umlActor;verticalLabelPosition=bottom;verticalAlign=top;html=1;" vertex="1" parent="1">
          <mxGeometry x="80" y="810" width="30" height="60" as="geometry" />
        </mxCell>
        <mxCell id="sYBTqALXC2QQ1GLhCgIk-2" value="" style="html=1;points=[[0,0,0,0,5],[0,1,0,0,-5],[1,0,0,0,5],[1,1,0,0,-5]];perimeter=orthogonalPerimeter;outlineConnect=0;targetShapes=umlLifeline;portConstraint=eastwest;newEdgeStyle={&quot;curved&quot;:0,&quot;rounded&quot;:0};" vertex="1" parent="1">
          <mxGeometry x="220" y="910" width="10" height="90" as="geometry" />
        </mxCell>
        <mxCell id="sYBTqALXC2QQ1GLhCgIk-3" value="" style="html=1;points=[[0,0,0,0,5],[0,1,0,0,-5],[1,0,0,0,5],[1,1,0,0,-5]];perimeter=orthogonalPerimeter;outlineConnect=0;targetShapes=umlLifeline;portConstraint=eastwest;newEdgeStyle={&quot;curved&quot;:0,&quot;rounded&quot;:0};" vertex="1" parent="1">
          <mxGeometry x="90" y="910" width="10" height="90" as="geometry" />
        </mxCell>
        <mxCell id="sYBTqALXC2QQ1GLhCgIk-4" value="" style="html=1;points=[[0,0,0,0,5],[0,1,0,0,-5],[1,0,0,0,5],[1,1,0,0,-5]];perimeter=orthogonalPerimeter;outlineConnect=0;targetShapes=umlLifeline;portConstraint=eastwest;newEdgeStyle={&quot;curved&quot;:0,&quot;rounded&quot;:0};" vertex="1" parent="1">
          <mxGeometry x="370" y="920" width="10" height="80" as="geometry" />
        </mxCell>
        <mxCell id="sYBTqALXC2QQ1GLhCgIk-5" value="Reservar_box" style="html=1;verticalAlign=bottom;endArrow=block;curved=0;rounded=0;entryX=0;entryY=0;entryDx=0;entryDy=5;entryPerimeter=0;" edge="1" parent="1" source="sYBTqALXC2QQ1GLhCgIk-3" target="sYBTqALXC2QQ1GLhCgIk-2">
          <mxGeometry width="80" relative="1" as="geometry">
            <mxPoint x="120" y="890" as="sourcePoint" />
            <mxPoint x="200" y="890" as="targetPoint" />
            <mxPoint as="offset" />
          </mxGeometry>
        </mxCell>
        <mxCell id="sYBTqALXC2QQ1GLhCgIk-6" value="Reservar_box" style="html=1;verticalAlign=bottom;endArrow=block;curved=0;rounded=0;" edge="1" parent="1" target="sYBTqALXC2QQ1GLhCgIk-4">
          <mxGeometry width="80" relative="1" as="geometry">
            <mxPoint x="230" y="920" as="sourcePoint" />
            <mxPoint x="320" y="920" as="targetPoint" />
            <mxPoint as="offset" />
          </mxGeometry>
        </mxCell>
        <mxCell id="sYBTqALXC2QQ1GLhCgIk-7" value="" style="endArrow=none;dashed=1;html=1;rounded=0;" edge="1" parent="1">
          <mxGeometry width="50" height="50" relative="1" as="geometry">
            <mxPoint x="95.24" y="910" as="sourcePoint" />
            <mxPoint x="94.75999999999998" y="890" as="targetPoint" />
          </mxGeometry>
        </mxCell>
        <mxCell id="sYBTqALXC2QQ1GLhCgIk-8" value="" style="endArrow=none;dashed=1;html=1;rounded=0;entryX=0.5;entryY=1;entryDx=0;entryDy=0;" edge="1" parent="1">
          <mxGeometry width="50" height="50" relative="1" as="geometry">
            <mxPoint x="224.96" y="910" as="sourcePoint" />
            <mxPoint x="224.71" y="865" as="targetPoint" />
          </mxGeometry>
        </mxCell>
        <mxCell id="sYBTqALXC2QQ1GLhCgIk-9" value="" style="endArrow=none;dashed=1;html=1;rounded=0;entryX=0.5;entryY=1;entryDx=0;entryDy=0;" edge="1" parent="1">
          <mxGeometry width="50" height="50" relative="1" as="geometry">
            <mxPoint x="374.96" y="920" as="sourcePoint" />
            <mxPoint x="374.71" y="860" as="targetPoint" />
          </mxGeometry>
        </mxCell>
        <mxCell id="sYBTqALXC2QQ1GLhCgIk-10" value="Objeto del dominio: Box" style="html=1;align=center;verticalAlign=middle;dashed=0;whiteSpace=wrap;" vertex="1" parent="1">
          <mxGeometry x="170" y="825" width="110" height="40" as="geometry" />
        </mxCell>
        <mxCell id="sYBTqALXC2QQ1GLhCgIk-11" value="Objeto del dominio: Especialista" style="html=1;align=center;verticalAlign=middle;dashed=0;whiteSpace=wrap;" vertex="1" parent="1">
          <mxGeometry x="320" y="825" width="110" height="40" as="geometry" />
        </mxCell>
        <mxCell id="sYBTqALXC2QQ1GLhCgIk-12" value="Reservar_box" style="html=1;verticalAlign=bottom;endArrow=block;curved=0;rounded=0;" edge="1" parent="1">
          <mxGeometry width="80" relative="1" as="geometry">
            <mxPoint x="380" y="930" as="sourcePoint" />
            <mxPoint x="504.75" y="929.8" as="targetPoint" />
            <mxPoint as="offset" />
          </mxGeometry>
        </mxCell>
        <mxCell id="sYBTqALXC2QQ1GLhCgIk-13" value="Reservar_box" style="html=1;verticalAlign=bottom;endArrow=open;dashed=1;endSize=8;edgeStyle=elbowEdgeStyle;elbow=horizontal;curved=0;rounded=0;" edge="1" parent="1" source="sYBTqALXC2QQ1GLhCgIk-2">
          <mxGeometry relative="1" as="geometry">
            <mxPoint x="100" y="999.1700000000001" as="targetPoint" />
            <Array as="points">
              <mxPoint x="155" y="999.1700000000001" />
            </Array>
            <mxPoint x="200" y="1000" as="sourcePoint" />
          </mxGeometry>
        </mxCell>
        <mxCell id="sYBTqALXC2QQ1GLhCgIk-14" value="Reservar_box" style="html=1;verticalAlign=bottom;endArrow=open;dashed=1;endSize=8;edgeStyle=elbowEdgeStyle;elbow=vertical;curved=0;rounded=0;" edge="1" parent="1" source="sYBTqALXC2QQ1GLhCgIk-4">
          <mxGeometry relative="1" as="geometry">
            <mxPoint x="230" y="1000" as="targetPoint" />
            <Array as="points">
              <mxPoint x="255" y="999.1700000000001" />
            </Array>
            <mxPoint x="325" y="999.1700000000001" as="sourcePoint" />
            <mxPoint as="offset" />
          </mxGeometry>
        </mxCell>
        <mxCell id="sYBTqALXC2QQ1GLhCgIk-15" value="" style="rounded=0;whiteSpace=wrap;html=1;" vertex="1" parent="1">
          <mxGeometry x="504.75" y="920" width="20.5" height="50" as="geometry" />
        </mxCell>
        <mxCell id="sYBTqALXC2QQ1GLhCgIk-16" value="" style="endArrow=none;dashed=1;html=1;rounded=0;" edge="1" parent="1">
          <mxGeometry width="50" height="50" relative="1" as="geometry">
            <mxPoint x="514.5" y="920" as="sourcePoint" />
            <mxPoint x="514.42" y="870" as="targetPoint" />
          </mxGeometry>
        </mxCell>
        <mxCell id="sYBTqALXC2QQ1GLhCgIk-17" value="Objeto del dominio:&amp;nbsp;&lt;div&gt;Box&lt;/div&gt;" style="html=1;align=center;verticalAlign=middle;dashed=0;whiteSpace=wrap;" vertex="1" parent="1">
          <mxGeometry x="460" y="830" width="110" height="40" as="geometry" />
        </mxCell>
        <mxCell id="sYBTqALXC2QQ1GLhCgIk-18" value="Reservar_box" style="html=1;verticalAlign=bottom;endArrow=open;dashed=1;endSize=8;edgeStyle=elbowEdgeStyle;elbow=vertical;curved=0;rounded=0;" edge="1" parent="1">
          <mxGeometry relative="1" as="geometry">
            <mxPoint x="380" y="960" as="targetPoint" />
            <Array as="points">
              <mxPoint x="389.75" y="959.6700000000001" />
            </Array>
            <mxPoint x="504.75" y="959.5" as="sourcePoint" />
            <mxPoint as="offset" />
          </mxGeometry>
        </mxCell>
      </root>
    </mxGraphModel>
  </diagram>
</mxfile>
